<?xml version="1.0" encoding="UTF-8"?>
<svg id="Capa_1" xmlns="http://www.w3.org/2000/svg" version="1.1" viewBox="0 0 120 120">
  <!-- Generator: Adobe Illustrator 29.1.0, SVG Export Plug-In . SVG Version: 2.1.0 Build 142)  -->
  <defs>
    <style>
      .st0 {
        fill: #ff001f;
      }

      .st1 {
        fill: #22397e;
      }
    </style>
  </defs>
  <g id="vtuEEL.tif">
    <g>
      <path class="st0" d="M59.1,4.3c28.2-1.4,49.6,25.4,42.6,52.7-4.8,18.8-24.2,30.4-36.2,44.5-2.6,2.2-6.2,2.4-8.9.3-8.5-9.3-18.8-17.7-27.1-27.1C5.8,47.9,23.5,6.1,59.1,4.3ZM58,27.6c-8.5,1.1-15.7,9.1-16.1,17.6-.8,16.3,18.1,26.5,30.9,16.2,15.1-12.2,4.8-36.3-14.8-33.8Z"/>
      <path class="st1" d="M43.2,94.3c6.5,5.2,11.8,16,21.8,12.2,3.8-1.4,12.6-12.1,13.6-12.2,6.1,1.1,13.4,2,18.8,5.3,7,4.4,2.4,8.3-3.1,10.6-15.7,6.4-51.2,6.5-66.8,0-9.5-3.9-8.3-8.9.6-12.4,4.7-1.8,10.2-2.7,15.1-3.5Z"/>
    </g>
  </g>
</svg>